<svg xmlns="http://www.w3.org/2000/svg" viewBox="0 0 1400 900">
  <rect width="1400" height="900" fill="none"/>
  <g><path d="M 641.9 493.0 Q 648.1 473.5 658.1 455.6" fill="none" stroke="rgba(11,18,32,0.10)" stroke-width="1.35"/><path d="M 641.9 493.0 Q 644.7 449.4 656.0 407.2" fill="none" stroke="rgba(11,18,32,0.10)" stroke-width="1.35"/><path d="M 641.9 493.0 Q 685.5 518.0 723.3 551.0" fill="none" stroke="rgba(11,18,32,0.10)" stroke-width="1.35"/><path d="M 658.1 455.6 Q 654.6 431.5 656.0 407.2" fill="none" stroke="rgba(11,18,32,0.10)" stroke-width="1.35"/><path d="M 658.1 455.6 Q 695.5 500.1 723.3 551.0" fill="none" stroke="rgba(11,18,32,0.10)" stroke-width="1.35"/><path d="M 315.3 458.6 Q 312.7 476.1 306.8 492.7" fill="none" stroke="rgba(11,18,32,0.10)" stroke-width="1.35"/><path d="M 315.3 458.6 Q 326.9 414.6 347.1 373.9" fill="none" stroke="rgba(11,18,32,0.10)" stroke-width="1.35"/><path d="M 315.3 458.6 Q 260.2 489.8 199.9 509.6" fill="none" stroke="rgba(11,18,32,0.10)" stroke-width="1.35"/><path d="M 1057.4 157.8 Q 1037.0 168.5 1014.8 175.0" fill="none" stroke="rgba(11,18,32,0.10)" stroke-width="1.35"/><path d="M 1057.4 157.8 Q 1012.2 153.1 968.8 139.5" fill="none" stroke="rgba(11,18,32,0.10)" stroke-width="1.35"/><path d="M 1057.4 157.8 Q 1105.5 185.2 1147.2 221.6" fill="none" stroke="rgba(11,18,32,0.10)" stroke-width="1.35"/><path d="M 200.6 672.9 Q 174.4 731.2 137.2 783.1" fill="none" stroke="rgba(11,18,32,0.10)" stroke-width="1.35"/><path d="M 200.6 672.9 Q 258.6 641.6 321.6 622.4" fill="none" stroke="rgba(11,18,32,0.10)" stroke-width="1.35"/><path d="M 200.6 672.9 Q 258.8 638.9 322.6 617.0" fill="none" stroke="rgba(11,18,32,0.10)" stroke-width="1.35"/><path d="M 141.1 797.2 Q 138.4 790.3 137.2 783.1" fill="none" stroke="rgba(11,18,32,0.10)" stroke-width="1.35"/><path d="M 141.1 797.2 Q 234.3 776.2 329.8 774.1" fill="none" stroke="rgba(11,18,32,0.10)" stroke-width="1.35"/><path d="M 887.8 533.2 Q 909.4 519.7 933.3 510.8" fill="none" stroke="rgba(11,18,32,0.10)" stroke-width="1.35"/><path d="M 887.8 533.2 Q 872.2 486.3 866.1 437.2" fill="none" stroke="rgba(11,18,32,0.10)" stroke-width="1.35"/><path d="M 887.8 533.2 Q 887.3 475.7 898.2 419.3" fill="none" stroke="rgba(11,18,32,0.10)" stroke-width="1.35"/><path d="M 108.3 470.4 Q 156.1 485.4 199.9 509.6" fill="none" stroke="rgba(11,18,32,0.10)" stroke-width="1.35"/><path d="M 108.3 470.4 Q 145.3 395.5 196.3 329.5" fill="none" stroke="rgba(11,18,32,0.10)" stroke-width="1.35"/><path d="M 108.3 470.4 Q 99.9 377.0 110.2 283.8" fill="none" stroke="rgba(11,18,32,0.10)" stroke-width="1.35"/><path d="M 322.1 264.2 Q 336.7 268.7 350.2 276.0" fill="none" stroke="rgba(11,18,32,0.10)" stroke-width="1.35"/><path d="M 322.1 264.2 Q 336.9 272.8 349.7 284.3" fill="none" stroke="rgba(11,18,32,0.10)" stroke-width="1.35"/><path d="M 322.1 264.2 Q 340.0 317.8 347.1 373.9" fill="none" stroke="rgba(11,18,32,0.10)" stroke-width="1.35"/><path d="M 656.0 407.2 Q 696.9 475.7 723.3 551.0" fill="none" stroke="rgba(11,18,32,0.10)" stroke-width="1.35"/><path d="M 723.3 551.0 Q 743.3 584.2 756.2 620.6" fill="none" stroke="rgba(11,18,32,0.10)" stroke-width="1.35"/><path d="M 898.2 419.3 Q 883.1 429.8 866.1 437.2" fill="none" stroke="rgba(11,18,32,0.10)" stroke-width="1.35"/><path d="M 898.2 419.3 Q 861.0 410.0 826.3 393.4" fill="none" stroke="rgba(11,18,32,0.10)" stroke-width="1.35"/><path d="M 898.2 419.3 Q 857.8 392.2 823.6 357.6" fill="none" stroke="rgba(11,18,32,0.10)" stroke-width="1.35"/><path d="M 1307.1 806.9 Q 1277.6 755.9 1258.8 700.1" fill="none" stroke="rgba(11,18,32,0.10)" stroke-width="1.35"/><path d="M 1307.1 806.9 Q 1241.5 807.9 1176.9 796.0" fill="none" stroke="rgba(11,18,32,0.10)" stroke-width="1.35"/><path d="M 1307.1 806.9 Q 1246.3 748.3 1198.3 678.8" fill="none" stroke="rgba(11,18,32,0.10)" stroke-width="1.35"/><path d="M 953.5 317.0 Q 949.5 296.2 949.6 275.0" fill="none" stroke="rgba(11,18,32,0.10)" stroke-width="1.35"/><path d="M 953.5 317.0 Q 1011.4 307.2 1070.2 309.0" fill="none" stroke="rgba(11,18,32,0.10)" stroke-width="1.35"/><path d="M 442.6 140.6 Q 403.2 212.9 350.2 276.0" fill="none" stroke="rgba(11,18,32,0.10)" stroke-width="1.35"/><path d="M 442.6 140.6 Q 475.1 219.5 491.3 303.4" fill="none" stroke="rgba(11,18,32,0.10)" stroke-width="1.35"/><path d="M 442.6 140.6 Q 403.3 217.1 349.7 284.3" fill="none" stroke="rgba(11,18,32,0.10)" stroke-width="1.35"/><path d="M 578.5 699.5 Q 534.3 759.5 479.1 809.5" fill="none" stroke="rgba(11,18,32,0.10)" stroke-width="1.35"/><path d="M 578.5 699.5 Q 507.7 732.4 431.9 750.5" fill="none" stroke="rgba(11,18,32,0.10)" stroke-width="1.35"/><path d="M 578.5 699.5 Q 675.7 691.9 772.4 703.7" fill="none" stroke="rgba(11,18,32,0.10)" stroke-width="1.35"/><path d="M 1258.8 700.1 Q 1227.5 692.5 1198.3 678.8" fill="none" stroke="rgba(11,18,32,0.10)" stroke-width="1.35"/><path d="M 1258.8 700.1 Q 1222.7 752.1 1176.9 796.0" fill="none" stroke="rgba(11,18,32,0.10)" stroke-width="1.35"/><path d="M 345.9 745.4 Q 339.3 760.5 329.8 774.1" fill="none" stroke="rgba(11,18,32,0.10)" stroke-width="1.35"/><path d="M 345.9 745.4 Q 389.1 743.6 431.9 750.5" fill="none" stroke="rgba(11,18,32,0.10)" stroke-width="1.35"/><path d="M 345.9 745.4 Q 327.6 685.1 321.6 622.4" fill="none" stroke="rgba(11,18,32,0.10)" stroke-width="1.35"/><path d="M 1286.0 376.1 Q 1276.2 408.5 1260.1 438.3" fill="none" stroke="rgba(11,18,32,0.10)" stroke-width="1.35"/><path d="M 1286.0 376.1 Q 1244.5 363.7 1206.3 343.3" fill="none" stroke="rgba(11,18,32,0.10)" stroke-width="1.35"/><path d="M 1286.0 376.1 Q 1208.9 305.8 1147.2 221.6" fill="none" stroke="rgba(11,18,32,0.10)" stroke-width="1.35"/><path d="M 857.9 650.5 Q 817.8 681.4 772.4 703.7" fill="none" stroke="rgba(11,18,32,0.10)" stroke-width="1.35"/><path d="M 857.9 650.5 Q 805.6 640.7 756.2 620.6" fill="none" stroke="rgba(11,18,32,0.10)" stroke-width="1.35"/><path d="M 196.3 329.5 Q 151.0 310.9 110.2 283.8" fill="none" stroke="rgba(11,18,32,0.10)" stroke-width="1.35"/><path d="M 196.3 329.5 Q 174.4 274.8 163.8 216.9" fill="none" stroke="rgba(11,18,32,0.10)" stroke-width="1.35"/><path d="M 1014.8 175.0 Q 990.0 159.5 968.8 139.5" fill="none" stroke="rgba(11,18,32,0.10)" stroke-width="1.35"/><path d="M 1014.8 175.0 Q 987.2 228.3 949.6 275.0" fill="none" stroke="rgba(11,18,32,0.10)" stroke-width="1.35"/><path d="M 213.3 133.1 Q 171.5 122.0 132.8 102.9" fill="none" stroke="rgba(11,18,32,0.10)" stroke-width="1.35"/><path d="M 213.3 133.1 Q 192.7 177.5 163.8 216.9" fill="none" stroke="rgba(11,18,32,0.10)" stroke-width="1.35"/><path d="M 306.8 492.7 Q 254.2 506.5 199.9 509.6" fill="none" stroke="rgba(11,18,32,0.10)" stroke-width="1.35"/><path d="M 306.8 492.7 Q 320.9 554.0 322.6 617.0" fill="none" stroke="rgba(11,18,32,0.10)" stroke-width="1.35"/><path d="M 322.6 617.0 Q 322.4 619.7 321.6 622.4" fill="none" stroke="rgba(11,18,32,0.10)" stroke-width="1.35"/><path d="M 875.3 173.9 Q 873.6 168.2 873.0 162.2" fill="none" stroke="rgba(11,18,32,0.10)" stroke-width="1.35"/><path d="M 875.3 173.9 Q 832.2 183.7 788.0 184.7" fill="none" stroke="rgba(11,18,32,0.10)" stroke-width="1.35"/><path d="M 875.3 173.9 Q 920.4 152.0 968.8 139.5" fill="none" stroke="rgba(11,18,32,0.10)" stroke-width="1.35"/><path d="M 349.7 284.3 Q 349.5 280.1 350.2 276.0" fill="none" stroke="rgba(11,18,32,0.10)" stroke-width="1.35"/><path d="M 349.7 284.3 Q 352.9 329.2 347.1 373.9" fill="none" stroke="rgba(11,18,32,0.10)" stroke-width="1.35"/><path d="M 1070.2 309.0 Q 1104.3 261.5 1147.2 221.6" fill="none" stroke="rgba(11,18,32,0.10)" stroke-width="1.35"/><path d="M 1070.2 309.0 Q 1008.2 298.0 949.6 275.0" fill="none" stroke="rgba(11,18,32,0.10)" stroke-width="1.35"/><path d="M 347.1 373.9 Q 343.7 324.8 350.2 276.0" fill="none" stroke="rgba(11,18,32,0.10)" stroke-width="1.35"/><path d="M 873.0 162.2 Q 831.7 177.7 788.0 184.7" fill="none" stroke="rgba(11,18,32,0.10)" stroke-width="1.35"/><path d="M 873.0 162.2 Q 919.8 146.1 968.8 139.5" fill="none" stroke="rgba(11,18,32,0.10)" stroke-width="1.35"/><path d="M 823.6 357.6 Q 826.7 375.4 826.3 393.4" fill="none" stroke="rgba(11,18,32,0.10)" stroke-width="1.35"/><path d="M 823.6 357.6 Q 817.8 329.7 817.7 301.3" fill="none" stroke="rgba(11,18,32,0.10)" stroke-width="1.35"/><path d="M 823.6 357.6 Q 848.8 395.3 866.1 437.2" fill="none" stroke="rgba(11,18,32,0.10)" stroke-width="1.35"/><path d="M 1260.1 438.3 Q 1228.5 393.5 1206.3 343.3" fill="none" stroke="rgba(11,18,32,0.10)" stroke-width="1.35"/><path d="M 1147.2 221.6 Q 1182.8 279.5 1206.3 343.3" fill="none" stroke="rgba(11,18,32,0.10)" stroke-width="1.35"/><path d="M 1198.3 678.8 Q 1193.5 738.5 1176.9 796.0" fill="none" stroke="rgba(11,18,32,0.10)" stroke-width="1.35"/><path d="M 329.8 774.1 Q 379.7 757.2 431.9 750.5" fill="none" stroke="rgba(11,18,32,0.10)" stroke-width="1.35"/><path d="M 826.3 393.4 Q 848.4 413.3 866.1 437.2" fill="none" stroke="rgba(11,18,32,0.10)" stroke-width="1.35"/><path d="M 817.7 301.3 Q 797.0 244.5 788.0 184.7" fill="none" stroke="rgba(11,18,32,0.10)" stroke-width="1.35"/><path d="M 772.4 703.7 Q 760.2 663.0 756.2 620.6" fill="none" stroke="rgba(11,18,32,0.10)" stroke-width="1.35"/><path d="M 431.9 750.5 Q 458.4 777.7 479.1 809.5" fill="none" stroke="rgba(11,18,32,0.10)" stroke-width="1.35"/><path d="M 110.2 283.8 Q 133.6 247.7 163.8 216.9" fill="none" stroke="rgba(11,18,32,0.10)" stroke-width="1.35"/><path d="M 110.2 283.8 Q 112.5 192.2 132.8 102.9" fill="none" stroke="rgba(11,18,32,0.10)" stroke-width="1.35"/><path d="M 933.3 510.8 Q 896.0 477.4 866.1 437.2" fill="none" stroke="rgba(11,18,32,0.10)" stroke-width="1.35"/><path d="M 945.2 783.2 Q 957.9 687.7 989.2 596.7" fill="none" stroke="rgba(11,18,32,0.10)" stroke-width="1.35"/></g>
  <g><circle cx="641.9" cy="493.0" r="4.0" fill="rgba(11,18,32,0.16)"/><circle cx="658.1" cy="455.6" r="3.4" fill="rgba(11,18,32,0.16)"/><circle cx="315.3" cy="458.6" r="3.5" fill="rgba(11,18,32,0.16)"/><circle cx="1057.4" cy="157.8" r="2.8" fill="rgba(11,18,32,0.16)"/><circle cx="200.6" cy="672.9" r="3.6" fill="rgba(11,18,32,0.16)"/><circle cx="141.1" cy="797.2" r="4.1" fill="rgba(11,18,32,0.16)"/><circle cx="887.8" cy="533.2" r="2.5" fill="rgba(11,18,32,0.16)"/><circle cx="108.3" cy="470.4" r="2.3" fill="rgba(11,18,32,0.16)"/><circle cx="322.1" cy="264.2" r="2.3" fill="rgba(11,18,32,0.16)"/><circle cx="656.0" cy="407.2" r="3.9" fill="rgba(11,18,32,0.16)"/><circle cx="723.3" cy="551.0" r="3.2" fill="rgba(11,18,32,0.16)"/><circle cx="898.2" cy="419.3" r="2.8" fill="rgba(11,18,32,0.16)"/><circle cx="1307.1" cy="806.9" r="3.9" fill="rgba(11,18,32,0.16)"/><circle cx="953.5" cy="317.0" r="2.7" fill="rgba(11,18,32,0.16)"/><circle cx="442.6" cy="140.6" r="3.7" fill="rgba(11,18,32,0.16)"/><circle cx="578.5" cy="699.5" r="3.0" fill="rgba(11,18,32,0.16)"/><circle cx="1258.8" cy="700.1" r="2.2" fill="rgba(11,18,32,0.16)"/><circle cx="345.9" cy="745.4" r="3.1" fill="rgba(11,18,32,0.16)"/><circle cx="1286.0" cy="376.1" r="2.3" fill="rgba(11,18,32,0.16)"/><circle cx="857.9" cy="650.5" r="2.7" fill="rgba(11,18,32,0.16)"/><circle cx="196.3" cy="329.5" r="4.1" fill="rgba(11,18,32,0.16)"/><circle cx="1014.8" cy="175.0" r="2.7" fill="rgba(11,18,32,0.16)"/><circle cx="213.3" cy="133.1" r="3.8" fill="rgba(11,18,32,0.16)"/><circle cx="306.8" cy="492.7" r="3.1" fill="rgba(11,18,32,0.16)"/><circle cx="322.6" cy="617.0" r="2.5" fill="rgba(11,18,32,0.16)"/><circle cx="875.3" cy="173.9" r="3.0" fill="rgba(11,18,32,0.16)"/><circle cx="349.7" cy="284.3" r="4.1" fill="rgba(11,18,32,0.16)"/><circle cx="1070.2" cy="309.0" r="4.0" fill="rgba(11,18,32,0.16)"/><circle cx="347.1" cy="373.9" r="3.9" fill="rgba(11,18,32,0.16)"/><circle cx="873.0" cy="162.2" r="4.2" fill="rgba(11,18,32,0.16)"/><circle cx="350.2" cy="276.0" r="3.7" fill="rgba(11,18,32,0.16)"/><circle cx="491.3" cy="303.4" r="2.3" fill="rgba(11,18,32,0.16)"/><circle cx="199.9" cy="509.6" r="2.7" fill="rgba(11,18,32,0.16)"/><circle cx="823.6" cy="357.6" r="3.1" fill="rgba(11,18,32,0.16)"/><circle cx="1260.1" cy="438.3" r="3.3" fill="rgba(11,18,32,0.16)"/><circle cx="1147.2" cy="221.6" r="2.5" fill="rgba(11,18,32,0.16)"/><circle cx="1198.3" cy="678.8" r="2.7" fill="rgba(11,18,32,0.16)"/><circle cx="321.6" cy="622.4" r="4.1" fill="rgba(11,18,32,0.16)"/><circle cx="329.8" cy="774.1" r="4.0" fill="rgba(11,18,32,0.16)"/><circle cx="826.3" cy="393.4" r="2.4" fill="rgba(11,18,32,0.16)"/><circle cx="137.2" cy="783.1" r="2.7" fill="rgba(11,18,32,0.16)"/><circle cx="949.6" cy="275.0" r="3.8" fill="rgba(11,18,32,0.16)"/><circle cx="817.7" cy="301.3" r="2.6" fill="rgba(11,18,32,0.16)"/><circle cx="968.8" cy="139.5" r="2.7" fill="rgba(11,18,32,0.16)"/><circle cx="772.4" cy="703.7" r="3.4" fill="rgba(11,18,32,0.16)"/><circle cx="431.9" cy="750.5" r="2.6" fill="rgba(11,18,32,0.16)"/><circle cx="110.2" cy="283.8" r="3.1" fill="rgba(11,18,32,0.16)"/><circle cx="163.8" cy="216.9" r="2.9" fill="rgba(11,18,32,0.16)"/><circle cx="788.0" cy="184.7" r="2.9" fill="rgba(11,18,32,0.16)"/><circle cx="1176.9" cy="796.0" r="3.5" fill="rgba(11,18,32,0.16)"/><circle cx="933.3" cy="510.8" r="2.5" fill="rgba(11,18,32,0.16)"/><circle cx="132.8" cy="102.9" r="4.0" fill="rgba(11,18,32,0.16)"/><circle cx="945.2" cy="783.2" r="2.2" fill="rgba(11,18,32,0.16)"/><circle cx="866.1" cy="437.2" r="3.7" fill="rgba(11,18,32,0.16)"/><circle cx="479.1" cy="809.5" r="2.4" fill="rgba(11,18,32,0.16)"/><circle cx="756.2" cy="620.6" r="4.0" fill="rgba(11,18,32,0.16)"/><circle cx="989.2" cy="596.7" r="3.8" fill="rgba(11,18,32,0.16)"/><circle cx="1206.3" cy="343.3" r="3.6" fill="rgba(11,18,32,0.16)"/></g>
</svg>
